<?xml version="1.0" encoding="UTF-8" standalone="no" ?>
<!DOCTYPE svg PUBLIC "-//W3C//DTD SVG 1.1//EN" "http://www.w3.org/Graphics/SVG/1.1/DTD/svg11.dtd">
<svg xmlns="http://www.w3.org/2000/svg" xmlns:xlink="http://www.w3.org/1999/xlink" version="1.1" width="1080" height="1080" viewBox="0 0 1080 1080" xml:space="preserve">
<desc>Created with Fabric.js 5.2.4</desc>
<defs>
</defs>
<g transform="matrix(1 0 0 1 540 540)" id="40ea5cbf-7ac9-4a4e-82f9-2a9c36cbe4b2"  >
<rect style="stroke: none; stroke-width: 1; stroke-dasharray: none; stroke-linecap: butt; stroke-dashoffset: 0; stroke-linejoin: miter; stroke-miterlimit: 4; fill: rgb(255,255,255); fill-rule: nonzero; opacity: 1; visibility: hidden;" vector-effect="non-scaling-stroke"  x="-540" y="-540" rx="0" ry="0" width="1080" height="1080" />
</g>
<g transform="matrix(1 0 0 1 540 540)" id="5b63fd89-09ac-418b-9d36-20e14055adde"  >
</g>
<g transform="matrix(1 0 0 1 540 540)"  >
<g style="" vector-effect="non-scaling-stroke"   >
		<g transform="matrix(0.13 0 0 -0.13 217.92 -75.6)"  >
<path style="stroke: none; stroke-width: 1; stroke-dasharray: none; stroke-linecap: butt; stroke-dashoffset: 0; stroke-linejoin: miter; stroke-miterlimit: 4; fill: rgb(135,70,239); fill-rule: nonzero; opacity: 1;" vector-effect="non-scaling-stroke"  transform=" translate(-4196.57, -3129.56)" d="M 3574 4345 C 3481 4316 3406 4247 3362 4150 C 3341 4106 3336 4080 3336 4014 C 3336 3942 3340 3925 3368 3867 C 3406 3791 3460 3738 3539 3701 C 3592 3676 3606 3675 3788 3670 L 3982 3665 L 3861 3537 C 3794 3467 3729 3388 3716 3362 C 3628 3189 3695 2982 3866 2895 C 3917 2869 3938 2865 4064 2858 C 4220 2849 4297 2830 4335 2793 C 4388 2740 4372 2652 4305 2624 C 4257 2604 4135 2606 4068 2628 C 4009 2648 3961 2675 3862 2745 C 3788 2797 3720 2820 3640 2820 C 3409 2820 3228 2591 3284 2371 C 3313 2257 3375 2181 3513 2090 C 3709 1961 3928 1899 4195 1899 C 4460 1899 4662 1964 4833 2105 C 5118 2340 5205 2796 5027 3120 C 4982 3201 4850 3327 4763 3373 C 4723 3394 4690 3413 4690 3416 C 4690 3419 4766 3496 4859 3588 C 5003 3731 5033 3765 5061 3824 C 5089 3883 5095 3906 5098 3984 C 5101 4060 5098 4085 5080 4134 C 5041 4236 4950 4316 4838 4346 C 4764 4365 3636 4365 3574 4345 z" stroke-linecap="round" />
</g>
		<g transform="matrix(0.13 0 0 -0.13 -37.01 -2.6)"  >
<path style="stroke: none; stroke-width: 1; stroke-dasharray: none; stroke-linecap: butt; stroke-dashoffset: 0; stroke-linejoin: miter; stroke-miterlimit: 4; fill: rgb(135,70,239); fill-rule: nonzero; opacity: 1;" vector-effect="non-scaling-stroke"  transform=" translate(-2284.59, -2582.07)" d="M 2207 3809 C 1956 3789 1751 3692 1576 3513 C 1491 3427 1445 3348 1432 3267 C 1402 3078 1515 2910 1703 2864 C 1758 2850 1782 2849 1835 2858 C 1925 2873 1979 2903 2072 2988 C 2170 3078 2213 3099 2299 3100 C 2358 3100 2364 3098 2396 3066 C 2427 3035 2430 3027 2430 2973 C 2430 2903 2409 2854 2349 2783 C 2294 2717 2207 2642 1798 2307 C 1618 2160 1455 2020 1435 1997 C 1297 1836 1301 1594 1445 1461 C 1506 1405 1580 1372 1671 1360 C 1765 1348 2854 1347 2937 1359 C 3058 1377 3158 1450 3208 1558 C 3231 1607 3235 1628 3235 1705 C 3235 1781 3231 1802 3210 1844 C 3171 1921 3116 1976 3042 2012 L 2975 2045 L 2775 2050 L 2575 2055 L 2640 2105 C 2956 2348 3117 2549 3177 2775 C 3202 2873 3202 3136 3176 3230 C 3066 3629 2698 3849 2207 3809 z" stroke-linecap="round" />
</g>
		<g transform="matrix(0.13 0 0 -0.13 -260.72 74.88)"  >
<path style="stroke: none; stroke-width: 1; stroke-dasharray: none; stroke-linecap: butt; stroke-dashoffset: 0; stroke-linejoin: miter; stroke-miterlimit: 4; fill: rgb(135,70,239); fill-rule: nonzero; opacity: 1;" vector-effect="non-scaling-stroke"  transform=" translate(-606.8, -2000.95)" d="M 750 3234 C 630 3212 278 3114 205 3081 C 138 3051 67 2979 34 2907 C 10 2855 5 2832 5 2765 C 6 2639 60 2542 165 2475 C 232 2432 295 2417 379 2422 L 450 2426 L 450 1780 C 450 1413 454 1110 460 1076 C 479 956 557 853 670 797 C 729 768 743 765 830 765 C 918 765 931 768 992 798 C 1107 854 1180 955 1200 1085 C 1207 1132 1210 1442 1208 2045 L 1205 2935 L 1182 2992 C 1141 3094 1062 3173 964 3210 C 910 3230 798 3243 750 3234 z" stroke-linecap="round" />
</g>
</g>
</g>
<g transform="matrix(NaN NaN NaN NaN 0 0)"  >
<g style=""   >
</g>
</g>
</svg>