<svg version="1.1" id="Layer_1" xmlns="http://www.w3.org/2000/svg" xmlns:xlink="http://www.w3.org/1999/xlink" x="0px" y="0px"
	 width="100%" viewBox="0 0 672 1024" enable-background="new 0 0 672 1024" xml:space="preserve">
<path fill="#000000" opacity="1.000000" stroke="none" 
	d="
M208.501099,527.463867 
	C214.415405,519.620850 214.585083,510.353119 216.568756,501.663544 
	C217.455276,497.780121 217.920380,493.801788 218.619278,489.874054 
	C220.096115,481.574219 215.808334,474.285828 214.512650,466.472656 
	C214.180405,464.469269 212.294540,464.751984 210.850098,464.704376 
	C177.608795,463.608093 169.759552,420.548798 182.731598,402.693573 
	C183.902084,401.082458 184.923798,399.102417 186.521698,398.110992 
	C191.558792,394.985779 191.427780,390.767242 190.392700,385.689178 
	C187.176056,369.908447 186.044296,353.987366 189.756989,338.140717 
	C194.203857,319.160400 203.654480,303.697723 221.634171,294.441376 
	C227.470322,291.436829 233.548615,290.223297 239.981186,290.779266 
	C243.149155,291.053101 245.191513,290.049255 247.087982,287.418274 
	C260.152100,269.294495 278.348969,261.431610 300.296967,260.593323 
	C318.698486,259.890442 335.463104,265.269379 351.646942,273.158173 
	C362.141815,278.273834 372.542603,283.472412 384.312500,285.147156 
	C392.011169,286.242615 399.579102,285.760010 407.141602,284.234131 
	C414.992798,282.649994 417.899628,285.094543 418.373474,293.054565 
	C418.791595,300.078278 416.972412,306.510529 413.734314,312.735718 
	C416.598358,314.713440 419.350311,316.283813 421.719818,318.303040 
	C438.215851,332.360504 436.907959,357.264954 418.953979,372.467743 
	C411.446472,378.824829 411.335693,383.369141 418.169983,390.693604 
	C438.764191,412.764862 450.980194,438.982361 456.268616,468.542816 
	C458.696472,482.113678 461.013489,495.707001 463.125702,509.329651 
	C463.584808,512.290588 464.781281,514.628174 466.381104,516.998657 
	C492.662170,555.940491 519.688782,594.398254 543.690979,634.829468 
	C553.726807,651.734558 563.547485,668.816711 569.955872,687.508606 
	C575.746338,704.398132 575.675964,721.005310 564.739197,736.095276 
	C556.156311,747.937500 543.929138,753.554749 529.577515,754.236633 
	C507.919464,755.265686 487.996399,747.926941 468.109161,740.678955 
	C462.790710,738.740723 457.411804,736.903137 452.276062,734.549316 
	C448.108887,732.639282 446.263397,733.948669 444.922363,737.943237 
	C443.441437,742.354553 441.466888,746.599304 439.731049,750.926086 
	C436.485687,759.015442 430.896088,764.779602 422.339783,766.750000 
	C417.752075,767.806458 417.008179,770.284790 417.258301,774.234436 
	C418.603912,795.483887 419.871033,816.738281 421.133331,837.992920 
	C422.218536,856.265869 423.226318,874.543396 424.335968,892.814819 
	C424.930695,902.607666 425.712860,912.389099 426.307434,922.181946 
	C426.444244,924.435608 426.879303,927.352356 423.510559,927.591248 
	C420.239014,927.823364 418.843719,925.629150 418.627747,922.524170 
	C417.658508,908.589172 416.598785,894.660278 415.682007,880.721924 
	C414.022888,855.497498 412.405884,830.270264 410.849335,805.039307 
	C410.326660,796.567017 410.051849,788.079468 409.639832,779.600098 
	C409.536743,777.478577 409.992188,775.241394 408.498749,773.296143 
	C406.197083,772.852112 404.868317,774.643799 403.279510,775.672485 
	C380.399658,790.487061 355.409576,796.896729 328.242065,794.429138 
	C325.015320,794.136108 322.855774,795.634033 320.568359,797.298828 
	C289.425507,819.964355 257.315369,841.154785 223.713486,860.001709 
	C203.474930,871.353271 182.658707,881.468994 159.437515,885.296692 
	C156.426559,885.792969 156.240204,887.667175 156.135208,889.924927 
	C155.570709,902.062561 155.003845,914.200134 154.422897,926.336975 
	C154.344543,927.974121 154.685013,929.710144 153.503891,931.133667 
	C152.478043,932.369995 151.257553,933.162048 149.583496,932.507202 
	C147.606689,931.733948 146.866486,930.073730 146.867477,928.131409 
	C146.870422,922.300720 146.582031,916.431946 147.143387,910.649414 
	C147.790405,903.984558 147.434341,897.328064 147.793427,890.678284 
	C147.920090,888.332703 147.678329,886.447327 144.523911,886.277649 
	C123.707779,885.157715 111.409172,872.497131 102.897285,855.033020 
	C96.015770,840.913940 93.622147,825.574768 91.719574,810.207825 
	C89.427841,791.697754 88.116661,773.097839 88.699188,754.427124 
	C88.819458,750.572449 87.736435,748.414246 83.953209,746.876526 
	C76.883667,744.003113 75.031876,740.216797 75.798386,732.710022 
	C78.093384,710.234131 80.310432,687.743286 83.730919,665.407654 
	C86.498428,647.335876 89.402565,629.281494 95.925705,612.024231 
	C105.900032,585.636597 125.087250,568.328247 150.008484,556.677734 
	C166.907455,548.777588 183.948090,541.179321 200.958267,533.519226 
	C203.921280,532.184875 206.524338,530.542236 208.501099,527.463867 
M185.337112,774.968628 
	C185.032562,779.186462 187.327179,778.708313 190.048248,777.619934 
	C219.423660,765.870422 249.068985,754.814697 277.882874,741.643188 
	C287.791443,737.113831 294.109924,730.528442 297.430756,720.500854 
	C298.214417,718.134460 299.216705,715.835388 300.209656,713.544922 
	C301.334747,710.949463 302.545074,708.390320 303.748383,705.829529 
	C311.958618,688.356812 326.183929,677.715820 343.630951,670.739441 
	C351.372986,667.643738 358.720337,662.160950 367.826874,667.521606 
	C369.253479,664.363831 370.453949,661.826538 371.555267,659.246887 
	C375.150421,650.825684 378.522675,642.303589 382.333466,633.981873 
	C386.362305,625.183899 393.032043,620.345825 403.187073,620.641357 
	C415.510651,621.000000 427.847290,620.940491 440.178497,620.973572 
	C442.063354,620.978638 444.164368,621.644714 446.078217,619.801025 
	C411.921631,582.138550 369.964264,559.130188 319.485229,551.297302 
	C318.453064,552.665466 318.414124,554.646851 318.346039,556.648376 
	C317.777344,573.372437 309.193512,583.612366 292.998657,587.313171 
	C269.722900,592.632141 249.234100,585.539490 230.076141,573.105774 
	C218.132797,565.354370 208.953461,554.911194 203.060135,542.282166 
	C201.491440,541.721558 200.624573,542.334534 199.730515,542.726074 
	C183.866364,549.674133 168.059479,556.738281 152.432297,564.218811 
	C122.929779,578.341248 104.802612,601.256775 97.673691,633.169006 
	C91.568062,660.500549 88.339462,688.238708 85.462723,716.024597 
	C84.894905,721.508972 83.383553,727.101135 84.851883,733.235596 
	C118.550262,722.687561 151.738144,726.702148 184.540939,735.664978 
	C186.154663,733.141541 185.636795,730.914124 185.578323,728.822571 
	C184.865860,703.337891 184.779419,677.847900 184.835556,652.356567 
	C184.842468,649.219116 185.243484,645.810974 189.354706,645.987549 
	C193.071228,646.147156 193.333359,649.362732 193.332825,652.346558 
	C193.327759,681.342834 193.308945,710.339172 193.355042,739.335327 
	C193.361099,743.143860 192.058182,746.233704 188.913589,748.302307 
	C187.056244,749.524292 186.165634,750.891418 186.113647,753.149902 
	C185.952728,760.139404 185.605621,767.124573 185.337112,774.968628 
M376.008362,750.570496 
	C373.328247,745.711426 377.348785,744.330322 380.321320,742.826050 
	C395.485565,735.152039 410.638977,727.462463 425.077393,718.466919 
	C429.021973,716.009338 433.159851,713.737854 436.267426,710.151550 
	C438.052429,708.091614 439.818054,705.644775 438.289673,702.955566 
	C436.657013,700.082886 433.909546,701.617126 431.551056,702.258728 
	C422.137665,704.819214 414.003143,710.222778 405.226807,714.196533 
	C395.203888,718.734741 384.990448,722.767395 374.715759,726.651428 
	C371.865173,727.729065 368.001648,729.112183 366.582855,724.929504 
	C365.143677,720.686646 369.193420,720.361633 371.927185,719.444031 
	C386.020233,714.713318 399.405334,708.347900 412.684906,701.751526 
	C416.702454,699.755981 420.891327,697.949829 424.189331,694.798462 
	C426.500214,692.590332 429.024536,689.962952 427.083588,686.562988 
	C425.149445,683.174927 421.794373,684.551025 418.986450,685.505737 
	C392.199158,694.613953 364.987091,702.339294 337.907227,710.494873 
	C335.467682,711.229492 332.786194,712.203552 331.347290,709.175659 
	C329.857056,706.039734 332.612946,704.786194 334.619324,703.365601 
	C341.959412,698.168640 349.311554,692.988770 356.659485,687.802917 
	C359.313110,685.930176 361.336578,683.601440 362.316559,680.419189 
	C362.925659,678.441406 364.771393,676.503113 362.536774,674.513611 
	C360.557343,672.751282 358.237396,672.893738 355.966553,673.881592 
	C351.540161,675.807251 347.216187,677.984924 342.728912,679.751160 
	C325.475403,686.542175 314.673096,699.410828 307.811523,716.167603 
	C305.100098,722.789185 302.280975,729.371582 298.839233,735.674194 
	C297.099121,738.860596 294.866089,741.412476 291.604340,743.003113 
	C283.225098,747.089417 274.964691,751.451721 266.424042,755.168884 
	C231.760666,770.255737 196.152481,782.992676 161.138596,797.213135 
	C158.216644,798.399841 155.195068,799.369812 152.164825,800.251709 
	C149.948654,800.896729 148.220398,800.114014 147.432755,797.793030 
	C146.702118,795.639954 147.776245,794.226685 149.518631,793.272095 
	C150.823013,792.557373 152.250946,792.058411 153.645905,791.520447 
	C160.326157,788.944763 167.015182,786.391846 173.698196,783.823242 
	C175.776367,783.024475 177.660599,782.159851 177.651611,779.369934 
	C177.615646,768.213196 177.553543,757.053162 178.559845,745.923157 
	C178.786697,743.414185 177.800888,741.925659 175.183151,741.263489 
	C150.551270,735.032410 125.726364,732.810242 100.498032,737.112488 
	C97.414131,737.638489 96.236198,738.868286 96.218903,741.951782 
	C96.068375,768.773254 96.943878,795.534668 101.397682,822.042358 
	C103.667786,835.553345 106.879639,848.879761 114.877869,860.351440 
	C124.692131,874.427734 137.905121,880.573181 155.365891,878.071533 
	C174.856628,875.278992 192.482590,867.704346 209.650558,858.727417 
	C246.801163,839.301880 281.297791,815.668213 315.334106,791.357910 
	C320.257660,787.841248 324.979675,786.340332 330.990448,786.749023 
	C359.080780,788.658752 384.339874,780.939636 406.477814,763.453125 
	C410.837128,760.009827 415.154419,756.392761 417.895020,750.552490 
	C407.720581,757.230103 398.117645,763.510010 388.060974,769.047180 
	C385.656006,770.371338 382.811676,771.609070 381.079224,768.443604 
	C379.400940,765.377258 381.622284,763.570068 384.209961,762.205200 
	C394.095642,756.990723 403.593994,751.136292 412.728760,744.699341 
	C417.495026,741.340576 422.310089,738.020630 426.046692,733.441833 
	C427.580627,731.562256 429.173920,729.669556 428.204834,726.881165 
	C425.783020,727.101501 424.255920,728.500549 422.584167,729.512817 
	C409.893921,737.196838 396.941406,744.388916 383.427277,750.531433 
	C381.235687,751.527588 379.029449,753.304932 376.008362,750.570496 
M221.140579,410.416382 
	C217.260086,402.982971 211.926208,397.614624 202.777115,398.417725 
	C195.324936,399.071899 188.519806,406.086609 186.206146,415.137024 
	C184.428604,422.090240 184.916794,429.023438 186.928482,435.828369 
	C188.853836,442.341309 191.830139,448.346924 197.831512,452.047760 
	C203.598816,455.604309 209.661469,458.066376 216.726593,455.474304 
	C219.132416,454.591675 220.909760,456.154419 221.424759,458.671478 
	C222.022583,461.593262 222.204620,464.620758 223.014832,467.475281 
	C233.291321,503.681274 258.063934,525.086182 293.739685,533.349243 
	C319.096344,539.222229 342.447998,533.573914 360.752777,513.515564 
	C372.121552,501.057678 378.743134,485.949036 383.582703,470.085175 
	C390.822815,446.352570 395.045074,421.958649 398.728363,397.453827 
	C400.498047,385.680176 399.570496,374.076843 398.277313,362.047852 
	C376.366577,369.246979 357.500549,363.432800 340.430878,350.047211 
	C337.396484,347.667786 335.274597,347.409637 332.168976,349.438110 
	C329.251038,351.344055 325.908844,352.549042 322.452911,353.250854 
	C302.272858,357.349152 285.567474,350.089203 270.541626,337.344421 
	C268.826782,335.889923 267.532776,333.815735 264.947571,333.364929 
	C264.746246,333.910126 264.430481,334.356171 264.441650,334.793823 
	C264.950928,354.740326 257.114197,371.325745 244.076920,385.892761 
	C239.897614,390.562439 237.250534,396.023346 236.104828,402.294861 
	C235.150818,407.517120 233.671188,412.647217 232.325439,417.792236 
	C231.773376,419.902771 230.430435,421.265472 228.049255,421.281647 
	C225.531738,421.298737 224.696533,419.582977 224.001022,417.581787 
	C223.238159,415.386719 222.337265,413.239624 221.140579,410.416382 
M456.920502,619.802551 
	C459.608185,623.303223 463.411896,621.500977 466.680969,621.652222 
	C481.571625,622.341125 489.140442,634.158936 483.214935,647.794312 
	C481.489075,651.765747 480.016724,655.879700 477.934265,659.655945 
	C475.103882,664.788574 475.334167,669.415161 477.833405,674.729553 
	C482.662109,684.997253 487.644440,695.148254 493.672241,704.769897 
	C494.641846,706.317444 495.800995,707.916199 494.521576,709.823608 
	C493.627289,711.156799 492.273743,711.929565 490.679474,711.699463 
	C488.477814,711.381714 487.359009,709.583374 486.316254,707.875671 
	C481.711182,700.334351 477.575470,692.538391 473.807709,684.546265 
	C472.926239,682.676514 472.351837,680.587646 470.026917,678.968933 
	C466.609100,687.136841 463.558075,695.044983 460.006683,702.721741 
	C457.127960,708.944519 456.169617,715.304810 456.193115,722.098938 
	C456.207916,726.368042 457.811401,728.277649 461.631500,729.731018 
	C480.796570,737.022095 500.023895,743.942017 520.576782,746.357849 
	C533.938782,747.928406 553.184692,742.713318 561.219971,726.739868 
	C567.710876,713.836609 566.718872,701.030151 561.782227,688.067383 
	C553.792114,667.086914 542.406738,647.872620 530.661133,628.882874 
	C507.604248,591.605591 482.678772,555.554749 458.206604,519.207825 
	C457.101166,517.565979 455.937286,516.015930 455.608368,513.897522 
	C453.697754,501.591797 451.604492,489.314514 449.674622,477.011719 
	C445.137268,448.086426 434.461273,421.911163 415.116211,399.612823 
	C413.989441,398.314026 413.123474,396.496735 410.753723,396.388916 
	C410.208801,398.330566 409.898651,400.327728 409.100769,402.106110 
	C406.976105,406.841705 407.818146,410.594879 411.085907,414.810669 
	C418.249451,424.052460 423.705994,434.386688 428.304596,445.162903 
	C429.427521,447.794312 429.229584,449.727509 426.501953,450.878113 
	C423.973450,451.944672 421.944061,451.264435 420.742615,448.660919 
	C419.696014,446.392944 418.707855,444.095917 417.594727,441.861084 
	C413.983582,434.610870 410.027527,427.569977 404.985046,420.549774 
	C402.242096,425.754700 401.577301,429.915710 404.858582,434.593567 
	C408.687347,440.051880 411.247742,446.271362 413.269135,452.649872 
	C413.999847,454.955688 415.474152,457.816132 411.969330,458.979828 
	C408.646454,460.083099 406.728302,458.129028 405.730194,454.945282 
	C404.350037,450.542816 402.724945,446.225067 399.452179,441.516235 
	C398.432159,447.586426 395.224579,452.362549 397.802856,458.028473 
	C403.397522,470.323029 402.152405,483.035339 399.732666,495.744690 
	C398.961334,499.795959 396.323334,500.932098 392.721558,498.951965 
	C389.862732,497.380219 387.159241,495.525879 384.144348,493.645844 
	C382.229340,497.405640 380.783447,500.777191 378.863647,503.852966 
	C377.183075,506.545471 377.447083,508.501282 379.391052,510.979370 
	C388.369751,522.425110 399.588013,530.858765 413.219910,535.755310 
	C418.134460,537.520569 420.592438,540.586731 422.620819,545.084839 
	C433.781433,569.834473 445.191193,594.471802 456.920502,619.802551 
M232.453339,565.038208 
	C248.144501,576.184021 265.233948,582.499939 284.844452,580.742676 
	C302.308746,579.177734 311.309631,569.173889 310.744049,551.770630 
	C310.641296,548.608459 309.690552,547.275208 306.397522,547.323975 
	C299.665497,547.423645 293.193787,545.749207 286.850067,543.682861 
	C263.202820,535.980347 244.896118,521.002625 229.782257,501.675781 
	C228.741150,500.344391 228.286377,498.273651 225.639755,497.962921 
	C225.171768,500.244934 224.663986,502.467255 224.265015,504.708954 
	C222.244812,516.060120 220.228012,527.423706 212.049561,536.374146 
	C210.078735,538.530945 211.225693,540.333130 212.235992,542.257263 
	C216.980896,551.294067 224.014359,558.324280 232.453339,565.038208 
M414.648560,547.805481 
	C413.814026,545.435303 412.128143,544.139832 409.772827,543.233337 
	C402.445099,540.412964 395.593414,536.647949 389.229034,532.040161 
	C382.746490,527.346741 377.561523,521.249573 371.438995,514.936768 
	C358.441254,529.235168 343.156708,539.256165 323.680206,542.691772 
	C367.077515,551.299377 405.914581,568.663757 438.191101,599.277100 
	C430.442261,582.344666 422.693390,565.412292 414.648560,547.805481 
M393.462219,484.414337 
	C393.986572,479.600494 394.187042,474.811523 392.505188,469.110260 
	C390.815247,474.361237 389.466492,478.612152 388.075134,482.849091 
	C387.414825,484.859711 388.447174,485.953796 390.033386,486.857239 
	C392.058868,488.010925 392.663452,486.641541 393.462219,484.414337 
z"/>
<path fill="#000000" opacity="1.000000" stroke="none" 
	d="
M503.434631,331.126129 
	C507.968292,331.386902 510.200165,329.751129 512.033569,325.696930 
	C521.087036,305.677368 540.823975,294.520721 564.009888,295.728699 
	C584.425903,296.792358 602.921265,311.178497 609.478455,331.505249 
	C610.915466,335.959656 612.789490,338.502441 617.749023,339.799530 
	C629.128601,342.775635 637.478577,353.874176 638.284790,365.506836 
	C639.319214,380.433838 632.585693,393.021545 620.354126,399.032410 
	C614.869751,401.727570 609.019043,402.910950 602.963928,402.925507 
	C572.975891,402.997528 542.987000,403.124390 512.999634,402.983276 
	C491.914703,402.884064 476.120087,388.550629 474.906708,367.758453 
	C473.964722,351.617188 483.511292,335.071350 503.434631,331.126129 
M622.111511,351.358551 
	C619.041626,348.942139 615.617737,346.906097 611.721130,346.899841 
	C605.796936,346.890289 603.995544,343.745605 602.833130,338.481171 
	C599.698547,324.284821 591.378174,313.823486 578.044739,307.844696 
	C553.839478,296.990936 526.575806,308.683014 517.877075,333.718689 
	C516.316162,338.210968 513.985474,339.843781 509.498810,339.427643 
	C507.038574,339.199463 504.564331,339.336182 502.093445,340.074860 
	C489.840668,343.737762 481.741821,356.453400 483.416962,369.613342 
	C485.128387,383.058411 496.900787,394.398956 510.542572,394.531677 
	C541.846130,394.836243 573.156677,394.829346 604.460022,394.513580 
	C615.258423,394.404694 623.927795,389.337860 628.013367,378.959869 
	C631.904907,369.074768 630.571411,359.656403 622.111511,351.358551 
z"/>
<path fill="#000000" opacity="1.000000" stroke="none" 
	d="
M321.160736,163.688278 
	C313.912506,173.007156 301.632599,174.657349 292.589386,167.834152 
	C283.925964,161.297516 282.306885,147.143875 289.141479,137.693649 
	C295.220703,129.287842 308.013275,127.424171 316.810730,133.785187 
	C322.115326,137.620682 323.943146,143.225037 323.989899,149.483047 
	C324.016571,153.048691 321.816254,154.350647 318.429779,154.315659 
	C311.333099,154.242325 304.235138,154.293427 296.699310,154.293427 
	C297.135925,158.489380 298.932465,160.916351 302.012817,162.198364 
	C305.180634,163.516739 308.361053,163.019638 310.783234,160.527359 
	C312.802124,158.450089 314.977936,157.556625 317.858124,157.666458 
	C322.065582,157.826920 323.358643,159.504578 321.160736,163.688278 
M311.122162,145.673080 
	C313.223145,143.762283 311.451233,142.415268 310.289093,141.253632 
	C306.052094,137.018494 299.341980,139.071014 297.259644,145.412018 
	C301.645569,146.389236 306.035461,145.820877 311.122162,145.673080 
z"/>
<path fill="#000000" opacity="1.000000" stroke="none" 
	d="
M525.650146,146.922485 
	C529.420776,133.729996 538.714600,127.878502 550.814758,130.710526 
	C559.296570,132.695663 565.123535,141.025116 564.326111,149.752899 
	C564.011169,153.200043 562.051147,154.271072 558.990784,154.271866 
	C553.168213,154.273361 547.345215,154.254257 541.523254,154.317413 
	C540.105530,154.332809 538.267212,153.841110 537.616821,155.668259 
	C537.054016,157.249298 538.150208,158.520599 539.166504,159.649796 
	C542.243896,163.069244 546.641968,163.591599 550.402100,160.939865 
	C551.347351,160.273239 552.048828,159.206772 553.050232,158.684052 
	C556.001831,157.143402 559.664368,156.557327 561.912292,158.778397 
	C564.711975,161.544693 561.295593,163.942978 559.560364,165.831482 
	C553.642029,172.272522 546.041077,172.585388 538.354126,170.360062 
	C531.006592,168.233017 526.792480,162.885162 525.604797,155.263885 
	C525.192505,152.617828 525.022644,149.972473 525.650146,146.922485 
M543.142212,139.332596 
	C540.276306,140.204605 538.267883,141.842484 537.566040,145.633041 
	C542.810791,145.957886 547.583435,146.424149 552.652893,145.208328 
	C551.433350,139.923950 548.067810,138.963425 543.142212,139.332596 
z"/>
<path fill="#000000" opacity="1.000000" stroke="none" 
	d="
M152.224213,130.152374 
	C150.689697,132.758240 149.508286,135.176819 147.934372,137.305115 
	C141.844604,145.539841 139.027359,154.595474 140.347229,164.870728 
	C140.856583,168.836075 140.011444,171.512131 134.894714,171.501083 
	C129.862976,171.490219 128.195847,169.224487 128.801651,164.792419 
	C130.282181,153.960739 126.887062,144.640732 120.742821,135.895920 
	C117.407349,131.148727 114.731842,125.937134 111.770309,120.928123 
	C109.931236,117.817612 111.216400,116.240822 114.429977,115.803963 
	C119.032112,115.178329 122.722298,115.876389 125.014839,120.876816 
	C127.692833,126.717964 130.577896,132.538132 134.663452,138.248367 
	C138.985931,132.293457 141.744034,125.903297 145.222733,119.948738 
	C146.248703,118.192551 147.187119,116.308632 149.378174,115.969093 
	C152.361435,115.506805 155.781479,115.215622 157.806961,117.615768 
	C159.647018,119.796188 156.825348,121.804153 155.890488,123.790657 
	C154.903503,125.887894 153.575851,127.824799 152.224213,130.152374 
z"/>
<path fill="#000000" opacity="1.000000" stroke="none" 
	d="
M375.720276,171.203949 
	C366.701172,173.301086 358.878815,171.998077 353.394897,164.567154 
	C347.725372,156.884766 348.144592,148.206619 351.722015,139.886154 
	C354.952026,132.373764 363.903564,128.902206 373.411377,130.591492 
	C382.357330,132.180954 388.177704,138.370834 389.238007,147.422928 
	C390.573608,158.825363 386.164886,166.794525 375.720276,171.203949 
M361.885620,143.583542 
	C359.637665,147.214905 359.701599,151.197540 360.494751,155.128403 
	C361.628693,160.748032 366.354767,163.911667 371.454529,162.546249 
	C376.067200,161.311234 377.941284,157.652679 378.584961,153.328125 
	C379.431580,147.640457 377.214294,142.226273 373.371918,140.354248 
	C369.034210,138.240921 365.370514,139.434998 361.885620,143.583542 
z"/>
<path fill="#000000" opacity="1.000000" stroke="none" 
	d="
M185.583725,133.167450 
	C194.203613,140.147049 196.717667,152.047256 191.893097,161.715668 
	C187.747025,170.024414 178.216141,173.859940 168.057724,171.307785 
	C159.058868,169.046951 153.022659,159.825531 154.022079,149.865753 
	C155.750076,132.645248 169.393326,125.265549 185.583725,133.167450 
M175.161575,162.702667 
	C183.786407,159.955017 186.679047,147.981049 180.114548,141.858246 
	C177.016891,138.969009 173.401093,138.373215 169.633865,140.606506 
	C165.843369,142.853577 163.747055,148.776764 164.836258,153.793091 
	C166.102203,159.623535 168.715683,162.075592 175.161575,162.702667 
z"/>
<path fill="#000000" opacity="1.000000" stroke="none" 
	d="
M216.216660,162.487305 
	C221.608429,161.948730 223.770126,158.844421 223.853561,154.053467 
	C223.957840,148.064987 224.080872,142.072754 223.973404,136.086121 
	C223.901291,132.068344 225.444351,130.478973 229.594193,130.560928 
	C233.516800,130.638382 235.446594,131.758667 235.374451,135.989151 
	C235.215561,145.305634 235.391327,154.627487 235.286438,163.945526 
	C235.258423,166.436005 236.402100,169.780869 232.928085,170.825302 
	C229.541199,171.843521 225.946671,172.065994 223.524841,168.126617 
	C220.213989,171.164963 216.364960,171.570953 212.264267,171.401230 
	C205.570923,171.124207 201.473862,168.299332 199.924820,161.928650 
	C197.693329,152.751450 198.809586,143.380264 199.008148,134.098495 
	C199.096466,129.969849 202.785889,130.816330 205.527420,130.662827 
	C208.743698,130.482727 210.098083,132.151855 210.117096,135.159271 
	C210.157074,141.482635 210.198669,147.806412 210.167419,154.129669 
	C210.147018,158.254623 211.702026,161.214905 216.216660,162.487305 
z"/>
<path fill="#000000" opacity="1.000000" stroke="none" 
	d="
M509.763336,161.911804 
	C509.748657,156.598267 509.860962,151.766006 509.684937,146.944260 
	C509.514221,142.267349 506.769684,139.442688 502.748413,139.397217 
	C498.450653,139.348618 495.449005,142.258057 495.316589,147.028046 
	C495.150330,153.016769 495.121582,159.017151 495.296417,165.004837 
	C495.421295,169.281357 494.121399,171.456863 489.369690,171.470978 
	C484.692322,171.484863 483.776703,169.123459 483.816284,165.216553 
	C483.908997,156.061386 483.820099,146.904526 483.840363,137.748428 
	C483.855255,131.022202 486.306641,128.985733 492.830505,130.998428 
	C495.261017,131.748260 497.111908,131.637939 499.424805,130.902298 
	C510.521301,127.372932 519.998352,134.265671 520.283020,146.028931 
	C520.440002,152.517639 520.196899,159.016037 520.352844,165.504807 
	C520.446289,169.393433 519.180969,171.316605 514.955322,171.390106 
	C510.449005,171.468475 509.599182,169.042252 509.768860,165.393890 
	C509.815216,164.397385 509.768280,163.396530 509.763336,161.911804 
z"/>
<path fill="#000000" opacity="1.000000" stroke="none" 
	d="
M445.621216,120.107468 
	C445.661804,123.245346 444.256073,124.391800 441.584320,124.322693 
	C438.840820,124.251732 436.360748,125.003242 436.291748,128.236877 
	C436.225098,131.361588 438.970734,130.551758 440.781006,130.709183 
	C443.835083,130.974777 444.596191,133.001328 444.726318,135.522903 
	C444.873138,138.366531 443.360260,140.081070 440.596832,140.034348 
	C436.683960,139.968155 435.892731,142.021072 435.959076,145.380356 
	C436.090485,152.036331 435.951294,158.697189 435.993134,165.355606 
	C436.017853,169.288956 434.804596,171.506073 430.225586,171.481842 
	C425.431122,171.456482 424.794006,168.881210 424.844727,165.084366 
	C424.935913,158.260513 424.852478,151.434326 424.839722,144.609116 
	C424.835907,142.556793 424.871216,140.526459 422.082733,140.127182 
	C419.444763,139.749481 418.609985,138.028198 418.636993,135.500854 
	C418.664886,132.893127 419.156525,130.931213 422.256500,130.571289 
	C425.225372,130.226562 425.089081,127.514809 425.405640,125.552948 
	C427.102142,115.038300 435.543915,114.134270 442.662445,115.177200 
	C445.296814,115.563156 445.433075,117.666405 445.621216,120.107468 
z"/>
<path fill="#000000" opacity="1.000000" stroke="none" 
	d="
M408.488464,127.409279 
	C408.155090,130.500778 410.001801,130.693192 411.959229,130.663208 
	C414.797974,130.619736 416.948486,131.439117 417.052490,134.727707 
	C417.150909,137.838211 415.818481,140.050812 412.500763,140.038071 
	C408.808624,140.023880 408.124420,141.960938 408.180878,145.103958 
	C408.306335,152.088852 408.156769,159.078308 408.235321,166.064590 
	C408.277466,169.813049 406.732635,171.407547 402.856415,171.447693 
	C398.914734,171.488480 397.534546,169.917313 397.621552,166.105881 
	C397.780975,159.122467 397.604919,152.132019 397.674469,145.145569 
	C397.701416,142.441055 397.608734,140.188400 394.005737,139.970551 
	C391.284271,139.805984 390.637085,137.789856 390.674194,135.325882 
	C390.711212,132.870773 391.376678,130.919937 394.125031,130.762329 
	C397.014008,130.596649 397.488556,128.963608 397.715515,126.481178 
	C398.526794,117.606239 406.409210,112.567444 414.960022,115.179047 
	C417.656921,116.002739 417.920166,118.044334 417.908936,120.280052 
	C417.897644,122.528984 417.061646,124.195290 414.483734,124.282829 
	C412.110291,124.363426 409.754211,124.445839 408.488464,127.409279 
z"/>
<path fill="#000000" opacity="1.000000" stroke="none" 
	d="
M459.292053,121.133499 
	C459.288666,135.942871 459.225250,150.270432 459.314331,164.597076 
	C459.338928,168.559448 458.840576,171.356277 453.779419,171.419830 
	C448.739929,171.483139 448.645172,168.575134 448.658875,164.935669 
	C448.714142,150.275543 448.714661,135.614670 448.618774,120.954842 
	C448.594330,117.221405 448.903687,114.561394 453.837280,114.540733 
	C458.519745,114.521111 459.676849,116.648262 459.292053,121.133499 
z"/>
<path fill="#000000" opacity="1.000000" stroke="none" 
	d="
M269.634552,132.258820 
	C273.095734,132.100449 275.883972,130.174744 279.384247,130.549576 
	C282.466461,130.879623 283.970825,131.949280 284.083710,135.037720 
	C284.183960,137.781067 283.685394,139.818497 280.470276,140.604294 
	C270.722015,142.986832 270.343262,143.582443 270.306915,153.595459 
	C270.292389,157.592621 270.132751,161.598663 270.343140,165.584641 
	C270.572021,169.920349 268.751038,171.432556 264.460968,171.462021 
	C260.152466,171.491623 259.576569,169.312607 259.617401,165.831268 
	C259.728668,156.339249 259.638092,146.844986 259.656891,137.351685 
	C259.671112,130.181534 262.424255,128.687622 269.634552,132.258820 
z"/>
<path fill="#000000" opacity="1.000000" stroke="none" 
	d="
M469.324097,171.214172 
	C466.229340,170.328033 466.091461,168.068588 466.078918,165.903397 
	C466.021149,155.934250 466.076935,145.964478 466.029419,135.995224 
	C466.011932,132.329910 467.435120,130.554794 471.375549,130.579025 
	C475.309753,130.603210 477.244507,131.973145 477.204285,136.085388 
	C477.113312,145.389374 477.211304,154.695038 477.183289,163.999878 
	C477.162781,170.818878 476.675812,171.261368 469.324097,171.214172 
z"/>
<path fill="#000000" opacity="1.000000" stroke="none" 
	d="
M242.310944,128.512787 
	C242.869415,125.479935 243.299149,122.867493 243.780502,120.264595 
	C244.684418,115.376610 248.233459,113.433487 252.884613,115.220619 
	C255.618073,116.270912 255.592087,118.266151 254.698685,120.502243 
	C253.284454,124.041946 251.713181,127.520836 250.369415,131.086166 
	C249.250153,134.055893 247.588272,136.170822 244.121582,135.165039 
	C240.578888,134.137192 241.961945,131.294388 242.310944,128.512787 
z"/>
<path fill="#000000" opacity="1.000000" stroke="none" 
	d="
M466.268402,118.505173 
	C468.170410,114.698486 471.045593,114.000031 474.378723,115.216103 
	C476.803497,116.100784 477.871582,118.140320 477.687500,120.757782 
	C477.484070,123.649956 475.749390,125.283401 473.117188,125.953506 
	C469.116425,126.972015 466.192810,123.959915 466.268402,118.505173 
z"/>
<path fill="#000000" opacity="1.000000" stroke="none" 
	d="
M341.606506,459.686951 
	C343.497009,457.048096 341.944275,454.870697 341.276825,452.762329 
	C339.168274,446.101471 336.791260,439.526154 334.618225,432.884949 
	C333.676239,430.006042 333.354218,426.942566 337.156860,426.020752 
	C340.433807,425.226349 341.767731,427.528290 342.674866,430.392090 
	C345.235565,438.476135 348.181763,446.441498 350.608185,454.563538 
	C352.383759,460.507172 350.304718,465.101501 344.964966,467.995148 
	C340.635193,470.341522 335.911865,471.290314 330.986389,471.053101 
	C328.223145,470.920044 325.938934,469.871796 325.859772,466.746277 
	C325.775909,463.436310 328.143738,462.615479 330.932739,462.679932 
	C334.678955,462.766449 338.235229,462.221710 341.606506,459.686951 
z"/>
<path fill="#000000" opacity="1.000000" stroke="none" 
	d="
M303.872742,383.930573 
	C306.786591,382.566406 309.434784,381.518463 311.868164,380.101593 
	C314.399384,378.627808 316.534332,378.356323 318.321320,381.032623 
	C320.310577,384.011841 318.824402,385.972748 316.330231,387.653320 
	C309.534119,392.232422 301.911682,394.440704 293.871033,395.194153 
	C290.074677,395.549896 286.221252,395.304108 282.393616,395.315491 
	C279.189331,395.325012 276.744263,394.382812 276.797638,390.573853 
	C276.851471,386.731140 279.539856,386.545013 282.381226,386.668732 
	C289.570404,386.981750 296.678711,386.662994 303.872742,383.930573 
z"/>
<path fill="#000000" opacity="1.000000" stroke="none" 
	d="
M336.779297,497.644653 
	C334.239014,500.293213 332.041443,499.216278 329.844238,497.749176 
	C320.373260,491.425354 310.447693,490.463287 300.028931,495.215332 
	C297.853882,496.207397 295.391479,497.341827 294.052979,494.332001 
	C292.905212,491.751099 293.926147,489.544037 296.386200,487.948547 
	C305.602325,481.971313 326.732849,483.697205 334.742859,491.126251 
	C336.557465,492.809265 337.799164,494.662689 336.779297,497.644653 
z"/>
<path fill="#000000" opacity="1.000000" stroke="none" 
	d="
M370.269073,429.364044 
	C370.589203,434.189178 370.208527,438.414551 367.385071,442.066101 
	C363.541504,447.036987 357.732605,446.447205 355.136078,440.770966 
	C353.238647,436.622955 353.386139,432.355560 354.999023,428.200287 
	C356.486664,424.367676 358.598419,420.729736 363.401184,421.014465 
	C368.060272,421.290741 369.496155,424.951111 370.269073,429.364044 
z"/>
<path fill="#000000" opacity="1.000000" stroke="none" 
	d="
M292.631104,438.497559 
	C285.068115,433.151398 284.832611,420.667755 291.840179,415.497559 
	C294.034943,413.878296 296.313141,413.431671 298.788971,414.893829 
	C302.426971,417.042328 304.318695,423.715240 302.859070,429.359222 
	C301.224304,435.680481 298.396484,438.334167 292.631104,438.497559 
z"/>
<path fill="#000000" opacity="1.000000" stroke="none" 
	d="
M386.294800,404.174377 
	C384.929535,405.998596 383.654419,407.190582 381.482300,406.628296 
	C372.013306,404.177246 363.218628,400.456451 356.357849,393.176575 
	C354.245636,390.935333 352.203156,388.464447 355.223816,385.454681 
	C358.211517,382.477814 360.676544,384.298157 362.889709,386.585815 
	C368.127472,391.999969 374.510193,395.316345 381.705109,397.298767 
	C384.922760,398.185333 387.826569,399.519684 386.294800,404.174377 
z"/>
<path fill="#000000" opacity="1.000000" stroke="none" 
	d="
M215.422546,433.379639 
	C216.029938,436.501740 215.007080,438.457245 212.286407,439.030304 
	C209.348923,439.649017 208.058563,437.594727 207.429260,435.173798 
	C206.040054,429.829651 204.203918,424.716705 200.872131,420.218506 
	C199.429825,418.271210 199.163498,416.234314 201.363312,414.527863 
	C203.736938,412.686584 205.742126,413.578735 207.460724,415.523346 
	C211.883423,420.527435 214.131989,426.537201 215.422546,433.379639 
z"/>
<path fill="#000000" opacity="1.000000" stroke="none" 
	d="
M423.933289,475.116028 
	C425.238403,472.876678 425.874939,469.715057 428.984070,471.314301 
	C431.274628,472.492462 431.460297,475.005615 430.531464,477.471313 
	C426.713196,487.607483 424.699188,497.884796 427.978912,508.628174 
	C428.716644,511.044739 427.755981,513.124878 425.240601,513.654419 
	C422.697235,514.189819 421.265228,512.496521 420.646912,510.131317 
	C418.675751,502.591278 418.919861,494.973022 420.326782,487.426453 
	C421.083069,483.369904 422.605957,479.456268 423.933289,475.116028 
z"/>
<path fill="#000000" opacity="1.000000" stroke="none" 
	d="
M557.636475,367.328125 
	C553.117126,371.693390 548.850708,375.892944 544.608521,380.116699 
	C541.994080,382.719757 539.082031,384.307709 535.937012,381.285156 
	C532.764587,378.236267 534.184692,375.258331 536.890442,372.677551 
	C541.559631,368.223999 546.270508,363.814178 551.428223,358.947815 
	C546.307922,353.909912 542.063477,349.735779 537.821411,345.559326 
	C535.103455,342.883514 532.429443,340.084015 535.696960,336.181824 
	C537.935059,333.508972 541.600403,334.394684 545.492432,338.314423 
	C548.773071,341.618378 552.137817,344.849121 555.252136,348.304443 
	C557.485107,350.781921 559.165466,350.571991 561.344360,348.232208 
	C564.968872,344.340149 568.827332,340.665710 572.593689,336.906067 
	C575.175659,334.328705 578.184753,333.474396 580.938354,336.185760 
	C583.770081,338.974030 582.697998,342.044922 580.135437,344.501526 
	C575.465210,348.978668 570.662842,353.317902 565.416748,358.176666 
	C570.174438,363.035919 574.087708,367.019440 577.983582,371.019775 
	C579.142395,372.209686 580.425171,373.329803 581.346619,374.688416 
	C582.932556,377.026642 582.833618,379.516083 580.719910,381.463501 
	C578.403076,383.598053 575.758789,383.394958 573.545532,381.288818 
	C569.571838,377.507355 565.802612,373.511719 561.859985,369.696503 
	C560.744385,368.616943 559.994873,366.781738 557.636475,367.328125 
z"/>
</svg>